<svg width="232" height="60" viewBox="0 0 232 60" fill="none" xmlns="http://www.w3.org/2000/svg">
<path d="M0 58.7082V23.6873H12.0833V27.3748H12.2083C15.3438 24.2394 18.6927 22.6665 22.25 22.6665C23.9688 22.6665 25.6875 22.8957 27.3958 23.354C29.1042 23.8019 30.7396 24.4998 32.3125 25.4582C33.8802 26.4165 35.151 27.7707 36.125 29.5207C37.1094 31.2707 37.6042 33.3071 37.6042 35.6248V58.7082H25.5208V38.9165C25.5208 37.0988 24.9375 35.5103 23.7708 34.1457C22.6146 32.7707 21.1094 32.0832 19.25 32.0832C17.4271 32.0832 15.776 32.7915 14.2917 34.2082C12.8177 35.6144 12.0833 37.1821 12.0833 38.9165V58.7082H0Z" fill="black"/>
<path d="M40.7464 23.6874V10.6458H52.8297V23.6874H60.2047V32.8958H52.8297V44.0208C52.8297 47.2603 53.736 48.8749 55.5589 48.8749C56.0172 48.8749 56.4964 48.7864 56.9964 48.6041C57.4964 48.427 57.8818 48.2447 58.1631 48.0624L58.5589 47.7916L61.5589 57.5416C58.9756 58.9999 56.0172 59.7291 52.6839 59.7291C50.4183 59.7291 48.4651 59.3333 46.8297 58.5416C45.1891 57.7395 43.9443 56.6666 43.1006 55.3333C42.2516 53.9895 41.6474 52.578 41.2881 51.1041C40.9235 49.6197 40.7464 48.0364 40.7464 46.3541V32.8958H35.6839V23.6874H40.7464Z" fill="black"/>
<path d="M61.2925 23.6874V10.6458H73.3758V23.6874H80.7508V32.8958H73.3758V44.0208C73.3758 47.2603 74.2821 48.8749 76.105 48.8749C76.5633 48.8749 77.0425 48.7864 77.5425 48.6041C78.0425 48.427 78.4279 48.2447 78.7091 48.0624L79.105 47.7916L82.105 57.5416C79.5216 58.9999 76.5633 59.7291 73.23 59.7291C70.9644 59.7291 69.0112 59.3333 67.3758 58.5416C65.7352 57.7395 64.4904 56.6666 63.6466 55.3333C62.7977 53.9895 62.1935 52.578 61.8341 51.1041C61.4696 49.6197 61.2925 48.0364 61.2925 46.3541V32.8958H56.23V23.6874H61.2925Z" fill="black"/>
<path d="M94.3896 54.375C91.1083 50.8073 89.4729 46.4323 89.4729 41.25C89.4729 36.0573 91.1083 31.6615 94.3896 28.0625C97.6656 24.4688 101.832 22.6667 106.89 22.6667C111.525 22.6667 115.353 24.1198 118.369 27.0208V0H130.452V58.7083H118.494V54.75H118.369C115.353 58.0729 111.525 59.7292 106.89 59.7292C101.832 59.7292 97.6656 57.9479 94.3896 54.375ZM104.66 35.2917C103.087 36.8333 102.306 38.8125 102.306 41.2292C102.306 43.6458 103.056 45.6198 104.556 47.1458C106.067 48.6615 108.056 49.4167 110.515 49.4167C112.874 49.4167 114.817 48.6458 116.348 47.1042C117.874 45.5521 118.64 43.5938 118.64 41.2292C118.64 38.8125 117.853 36.8333 116.285 35.2917C114.712 33.75 112.791 32.9792 110.515 32.9792C108.192 32.9792 106.244 33.75 104.66 35.2917Z" fill="black"/>
<path d="M134.596 54.3748C131.315 50.8071 129.68 46.4321 129.68 41.2498C129.68 36.0571 131.315 31.6613 134.596 28.0623C137.872 24.4686 142.039 22.6665 147.096 22.6665C151.732 22.6665 155.56 24.1196 158.575 27.0207V23.6873H170.659V58.7082H158.7V54.7498H158.575C155.56 58.0728 151.732 59.729 147.096 59.729C142.039 59.729 137.872 57.9478 134.596 54.3748ZM144.867 35.2915C143.294 36.8332 142.513 38.8123 142.513 41.229C142.513 43.6457 143.263 45.6196 144.763 47.1457C146.273 48.6613 148.263 49.4165 150.721 49.4165C153.081 49.4165 155.023 48.6457 156.555 47.104C158.081 45.5519 158.846 43.5936 158.846 41.229C158.846 38.8123 158.06 36.8332 156.492 35.2915C154.919 33.7498 152.997 32.979 150.721 32.979C148.398 32.979 146.45 33.7498 144.867 35.2915Z" fill="black"/>
<path d="M174.469 23.6874V10.6458H186.553V23.6874H193.928V32.8958H186.553V44.0208C186.553 47.2603 187.459 48.8749 189.282 48.8749C189.74 48.8749 190.219 48.7864 190.719 48.6041C191.219 48.427 191.605 48.2447 191.886 48.0624L192.282 47.7916L195.282 57.5416C192.699 58.9999 189.74 59.7291 186.407 59.7291C184.141 59.7291 182.188 59.3333 180.553 58.5416C178.912 57.7395 177.667 56.6666 176.824 55.3333C175.975 53.9895 175.371 52.578 175.011 51.1041C174.647 49.6197 174.469 48.0364 174.469 46.3541V32.8958H169.407V23.6874H174.469Z" fill="black"/>
<path d="M195.349 54.3748C192.068 50.8071 190.432 46.4321 190.432 41.2498C190.432 36.0571 192.068 31.6613 195.349 28.0623C198.625 24.4686 202.792 22.6665 207.849 22.6665C212.484 22.6665 216.312 24.1196 219.328 27.0207V23.6873H231.411V58.7082H219.453V54.7498H219.328C216.312 58.0728 212.484 59.729 207.849 59.729C202.792 59.729 198.625 57.9478 195.349 54.3748ZM205.62 35.2915C204.047 36.8332 203.266 38.8123 203.266 41.229C203.266 43.6457 204.016 45.6196 205.516 47.1457C207.026 48.6613 209.016 49.4165 211.474 49.4165C213.833 49.4165 215.776 48.6457 217.307 47.104C218.833 45.5519 219.599 43.5936 219.599 41.229C219.599 38.8123 218.812 36.8332 217.245 35.2915C215.672 33.7498 213.75 32.979 211.474 32.979C209.151 32.979 207.203 33.7498 205.62 35.2915Z" fill="black"/>
</svg>
